<?xml version="1.0" encoding="utf-8"?>
<!-- Generator: Adobe Illustrator 19.0.0, SVG Export Plug-In . SVG Version: 6.00 Build 0)  -->
<svg version="1.1" id="Layer_1" xmlns="http://www.w3.org/2000/svg" xmlns:xlink="http://www.w3.org/1999/xlink" x="0px" y="0px"
	 viewBox="-86 11.9 125.9 16.1" style="enable-background:new -86 11.9 125.9 16.1;" xml:space="preserve">
<style type="text/css">
	.st0{fill:#27B0E5;}
</style>
<path class="st0" d="M-46.8,26.8c-1.5,0-2.7-0.4-3.5-1.3c-0.8-0.9-1.3-2-1.3-3.6c0-1.5,0.3-2.9,0.9-4.2c0.6-1.3,1.4-2.3,2.4-3
	s2.2-1.1,3.4-1.1c1.2,0,2.2,0.3,2.9,0.8c0.7,0.6,1,1.3,1,2.4c0,1.4-0.6,2.5-1.9,3.3c-1.3,0.8-3.1,1.2-5.5,1.2h-0.5l0,0.4V22
	c0,0.9,0.2,1.5,0.6,2c0.4,0.5,1.1,0.7,1.9,0.7c0.6,0,1.1-0.1,1.6-0.2c0.5-0.1,1.2-0.4,1.9-0.7v2.1c-0.7,0.3-1.4,0.6-2,0.7
	C-45.3,26.7-46,26.8-46.8,26.8z M-45,15.7c-0.7,0-1.4,0.3-2.1,1s-1.1,1.5-1.4,2.6h0.3c1.4,0,2.6-0.2,3.4-0.6c0.8-0.4,1.2-1,1.2-1.7
	c0-0.4-0.1-0.7-0.4-0.9C-44.2,15.8-44.6,15.7-45,15.7z"/>
<path d="M-39.9,23.2v-2.7h4.9v2.7H-39.9z"/>
<path d="M-33.3,13.9h4.4c1.7,0,3,0.3,3.8,0.8c0.8,0.5,1.3,1.3,1.3,2.4c0,0.7-0.2,1.3-0.5,1.8c-0.4,0.5-0.8,0.8-1.4,1v0.1
	c0.8,0.2,1.4,0.6,1.7,1c0.4,0.5,0.5,1.1,0.5,1.9c0,1.2-0.4,2.1-1.3,2.7c-0.9,0.7-2,1-3.5,1h-4.9V13.9z M-29.9,18.8h1
	c0.5,0,0.9-0.1,1.1-0.3c0.3-0.2,0.4-0.5,0.4-0.9c0-0.7-0.5-1.1-1.6-1.1h-1V18.8z M-29.9,21.3v2.7h1.2c1.1,0,1.6-0.5,1.6-1.4
	c0-0.4-0.1-0.7-0.4-1c-0.3-0.2-0.7-0.3-1.2-0.3H-29.9z"/>
<path d="M-21.6,14.3c0-0.5,0.1-0.9,0.4-1.1c0.3-0.2,0.7-0.4,1.4-0.4s1.1,0.1,1.4,0.4c0.3,0.3,0.4,0.6,0.4,1.1c0,1-0.6,1.5-1.8,1.5
	C-21,15.8-21.6,15.3-21.6,14.3z M-18.1,26.6h-3.4v-9.8h3.4V26.6z"/>
<path d="M-8.1,23.6c0,1.1-0.4,1.8-1.1,2.4c-0.7,0.5-1.7,0.8-3.1,0.8c-0.7,0-1.4,0-1.9-0.1c-0.5-0.1-1.1-0.2-1.7-0.4v-2.7
	c0.5,0.2,1.1,0.4,1.7,0.6c0.6,0.2,1.2,0.2,1.7,0.2c0.7,0,1.1-0.2,1.1-0.5c0-0.2-0.1-0.3-0.3-0.5c-0.2-0.1-0.8-0.4-1.8-0.8
	c-0.9-0.4-1.5-0.8-1.9-1.3c-0.4-0.5-0.5-1.1-0.5-1.8c0-0.9,0.4-1.6,1.1-2.1c0.7-0.5,1.7-0.8,3-0.8c0.6,0,1.3,0.1,1.8,0.2
	c0.6,0.1,1.2,0.3,1.8,0.6l-0.9,2.2c-0.5-0.2-0.9-0.4-1.4-0.5c-0.5-0.1-0.9-0.2-1.2-0.2c-0.6,0-0.8,0.1-0.8,0.4
	c0,0.2,0.1,0.3,0.3,0.4c0.2,0.1,0.8,0.4,1.7,0.7c0.7,0.3,1.2,0.6,1.5,0.8s0.6,0.6,0.7,1C-8.2,22.6-8.1,23-8.1,23.6z"/>
<path d="M0.2,26.6l-0.7-1.3h-0.1c-0.5,0.6-0.9,1-1.4,1.2c-0.5,0.2-1.1,0.3-1.8,0.3c-0.9,0-1.7-0.3-2.2-0.8c-0.5-0.6-0.8-1.3-0.8-2.3
	c0-1,0.4-1.8,1.1-2.3c0.7-0.5,1.8-0.8,3.2-0.9l1.6-0.1v-0.1c0-0.8-0.4-1.2-1.2-1.2c-0.7,0-1.6,0.2-2.7,0.7l-1-2.2
	c1.1-0.6,2.6-0.9,4.3-0.9c1.3,0,2.2,0.3,2.9,0.9s1,1.5,1,2.6v6.5H0.2z M-2.4,24.4c0.4,0,0.8-0.1,1.1-0.4s0.4-0.6,0.4-1v-0.8l-0.8,0
	c-1.1,0-1.7,0.5-1.7,1.2C-3.3,24.1-3,24.4-2.4,24.4z"/>
</svg>
